<svg version="1.0" xmlns="http://www.w3.org/2000/svg"
 width="1280.000000pt" height="1280.000000pt" viewBox="0 0 1280.000000 1280.000000"
 preserveAspectRatio="xMidYMid meet">
<g transform="translate(0.000000,1280.000000) scale(0.100000,-0.100000)" stroke="none">
<path d="M6320 10469 c-390 -37 -606 -77 -890 -161 -824 -245 -1584 -790
-2073 -1486 -179 -254 -351 -573 -455 -839 -361 -925 -358 -1953 7 -2880 352
-893 1050 -1648 1916 -2073 495 -242 950 -360 1552 -401 194 -13 411 -4 663
27 869 107 1674 499 2296 1120 613 612 1010 1417 1118 2269 38 303 44 511 21
805 -86 1128 -644 2147 -1551 2831 -437 331 -925 560 -1464 688 -367 88 -840
129 -1140 100z"/>
</g>
</svg>
